<svg xmlns="http://www.w3.org/2000/svg" xmlns:xlink="http://www.w3.org/1999/xlink" fill="none" version="1.1" width="92.701171875" height="14.7607421875" viewBox="0 0 92.701171875 14.7607421875"><g><g><path d="M12.6012,2.15943C9.72253,-0.719809,5.03814,-0.719809,2.15943,2.15943C-0.719809,5.03814,-0.719809,9.72254,2.15943,12.6012C5.03816,15.4805,9.72253,15.4805,12.6012,12.6012C15.4805,9.72254,15.4805,5.03814,12.6012,2.15943ZM11.8519,11.8519C9.38628,14.318,5.37385,14.3175,2.90876,11.8519C0.442653,9.3863,0.442653,5.37437,2.90876,2.90851C5.37385,0.443175,9.38626,0.442653,11.8519,2.90851C14.3175,5.37385,14.3175,9.3868,11.8519,11.8519Z" fill="#A3A3A3" fill-opacity="1"/></g><g><path d="M7.4178918750000005,3.62109375C6.979673875,3.62109375,6.623046875,3.97773775,6.623046875,4.41619075C6.623046875,4.85545375,6.979673875,5.21261375,7.4178918750000005,5.21261375C7.856616875,5.21261375,8.213796875,4.85545375,8.213796875,4.41619075C8.213796875,3.97773775,7.856616875,3.62109375,7.4178918750000005,3.62109375Z" fill="#A3A3A3" fill-opacity="1"/></g><g><path d="M7.418666375,5.892578125C7.088176375,5.892578125,6.818359375,6.161891125,6.818359375,6.492903125L6.818359375,11.195888125C6.818359375,11.526868125,7.088176375,11.796178125,7.418666375,11.796178125C7.749678375,11.796178125,8.019499375,11.526868125,8.019499375,11.195888125L8.019499375,6.492903125C8.019499375,6.161909125,7.749678375,5.892578125,7.418666375,5.892578125Z" fill="#A3A3A3" fill-opacity="1"/></g><g><path d="M23.568859375,4.35090625L23.568859375,13.36290625L24.456859375,13.36290625L24.456859375,5.23890625L27.924859375,5.23890625C27.864859375,6.822906250000001,27.420859375,8.80290625,24.768859374999998,10.23090625C24.984859375,10.38690625,25.284859375,10.72290625,25.416859375,10.91490625C27.036859375,9.96690625,27.900859375,8.82690625,28.356859375,7.674906249999999C29.460859375,8.69490625,30.672859375,9.94290625,31.284859375,10.75890625L32.028859374999996,10.17090625C31.284859375,9.27090625,29.820859375,7.8669062499999995,28.632859375,6.81090625C28.752859375,6.27090625,28.812859375000002,5.74290625,28.836859375,5.23890625L32.328859375,5.23890625L32.328859375,12.13890625C32.328859375,12.35490625,32.268859375,12.42690625,32.028859374999996,12.43890625C31.788859375,12.43890625,30.972859375,12.45090625,30.120859375000002,12.41490625C30.252859375,12.66690625,30.396859375,13.07490625,30.432859375,13.32690625C31.512859374999998,13.32690625,32.256859375,13.32690625,32.676859375,13.18290625C33.084859375,13.02690625,33.216859375,12.73890625,33.216859375,12.15090625L33.216859375,4.35090625L28.848859375,4.35090625L28.848859375,2.29890625L27.936859375,2.29890625L27.936859375,4.35090625L23.568859375,4.35090625ZM38.352859375,4.79490625C37.668859375,5.67090625,36.540859375,6.52290625,35.448859375,7.062906249999999C35.640859375,7.21890625,35.952859375,7.578906249999999,36.084859375,7.74690625C37.176859375,7.12290625,38.412859375,6.12690625,39.204859375,5.07090625L38.352859375,4.79490625ZM41.424859375,5.32290625C42.528859374999996,6.00690625,43.884859375000005,7.03890625,44.532859375,7.722906249999999L45.180859375,7.12290625C44.496859375,6.4389062500000005,43.116859375000004,5.45490625,42.024859375,4.80690625L41.424859375,5.32290625ZM40.320859375,5.85090625C39.180859375,7.626906249999999,37.044859375,9.12690625,34.824859375,9.95490625C35.040859375,10.14690625,35.280859375,10.45890625,35.412859375,10.67490625C35.964859375,10.44690625,36.504859375,10.19490625,37.020859375,9.89490625L37.020859375,13.35090625L37.896859375,13.35090625L37.896859375,12.94290625L42.840859375,12.94290625L42.840859375,13.30290625L43.752859375,13.30290625L43.752859375,9.75090625C44.244859375000004,10.02690625,44.772859374999996,10.29090625,45.312859375,10.53090625C45.432859375,10.26690625,45.684859375,9.96690625,45.900859374999996,9.77490625C43.956859375,9.00690625,42.240859375,8.05890625,40.884859375000005,6.51090625L41.100859375,6.19890625L40.320859375,5.85090625ZM37.896859375,12.13890625L37.896859375,10.12290625L42.840859375,10.12290625L42.840859375,12.13890625L37.896859375,12.13890625ZM37.956859375,9.31890625C38.880859375,8.69490625,39.720859375,7.96290625,40.404859375,7.146906250000001C41.208859375,8.03490625,42.072859375,8.73090625,43.008859375,9.31890625L37.956859375,9.31890625ZM39.576859375,2.4309062499999996C39.744859375000004,2.71890625,39.924859375,3.07890625,40.068859375,3.40290625L35.376859375,3.40290625L35.376859375,5.58690625L36.252859375,5.58690625L36.252859375,4.23090625L44.472859375,4.23090625L44.472859375,5.58690625L45.396859375,5.58690625L45.396859375,3.40290625L41.112859375,3.40290625C40.968859375,3.03090625,40.728859375,2.5749062499999997,40.500859375000005,2.21490625L39.576859375,2.4309062499999996ZM48.648859375,9.03090625L51.888859374999996,9.03090625L51.888859374999996,11.69490625L48.648859375,11.69490625L48.648859375,9.03090625ZM56.100859375,9.03090625L56.100859375,11.69490625L52.800859375,11.69490625L52.800859375,9.03090625L56.100859375,9.03090625ZM48.648859375,8.14290625L48.648859375,5.52690625L51.888859374999996,5.52690625L51.888859374999996,8.14290625L48.648859375,8.14290625ZM56.100859375,8.14290625L52.800859375,8.14290625L52.800859375,5.52690625L56.100859375,5.52690625L56.100859375,8.14290625ZM51.888859374999996,2.29890625L51.888859374999996,4.62690625L47.748859374999995,4.62690625L47.748859374999995,13.33890625L48.648859375,13.33890625L48.648859375,12.59490625L56.100859375,12.59490625L56.100859375,13.29090625L57.036859375,13.29090625L57.036859375,4.62690625L52.800859375,4.62690625L52.800859375,2.29890625L51.888859374999996,2.29890625ZM58.428859375,12.37890625L59.544859375,12.37890625L60.396859375,9.69090625L63.612859375,9.69090625L64.452859375,12.37890625L65.62885937499999,12.37890625L62.640859375,3.5829062499999997L61.404859375,3.5829062499999997L58.428859375,12.37890625ZM60.672859375,8.81490625L61.104859375,7.45890625C61.416859375,6.46290625,61.704859375,5.51490625,61.980859375,4.48290625L62.028859375,4.48290625C62.316859375,5.50290625,62.592859375,6.46290625,62.916859375,7.45890625L63.336859375,8.81490625L60.672859375,8.81490625ZM66.88885937500001,12.37890625L67.992859375,12.37890625L67.992859375,3.5829062499999997L66.88885937500001,3.5829062499999997L66.88885937500001,12.37890625ZM72.060859375,2.49090625C71.60485937499999,4.20690625,70.824859375,5.87490625,69.84085937500001,6.94290625C70.068859375,7.062906249999999,70.464859375,7.32690625,70.64485937500001,7.482906249999999C71.100859375,6.94290625,71.520859375,6.25890625,71.904859375,5.50290625L74.748859375,5.50290625L74.748859375,8.15490625L71.172859375,8.15490625L71.172859375,9.01890625L74.748859375,9.01890625L74.748859375,12.07890625L69.85285937500001,12.07890625L69.85285937500001,12.95490625L80.580859375,12.95490625L80.580859375,12.07890625L75.684859375,12.07890625L75.684859375,9.01890625L79.57285937500001,9.01890625L79.57285937500001,8.15490625L75.684859375,8.15490625L75.684859375,5.50290625L80.004859375,5.50290625L80.004859375,4.62690625L75.684859375,4.62690625L75.684859375,2.29890625L74.748859375,2.29890625L74.748859375,4.62690625L72.300859375,4.62690625C72.564859375,4.01490625,72.792859375,3.35490625,72.972859375,2.69490625L72.060859375,2.49090625ZM87.720859375,2.31090625C87.720859375,2.9949062499999997,87.744859375,3.67890625,87.780859375,4.33890625L82.728859375,4.33890625L82.728859375,7.710906250000001C82.728859375,9.27090625,82.62085937500001,11.34690625,81.624859375,12.82290625C81.84085937500001,12.93090625,82.224859375,13.24290625,82.380859375,13.42290625C83.484859375,11.83890625,83.66485937499999,9.41490625,83.66485937499999,7.722906249999999L83.66485937499999,7.63890625L85.86085937499999,7.63890625C85.812859375,9.70290625,85.752859375,10.47090625,85.59685937500001,10.65090625C85.500859375,10.75890625,85.392859375,10.78290625,85.212859375,10.78290625C85.008859375,10.78290625,84.492859375,10.78290625,83.940859375,10.72290625C84.08485937500001,10.95090625,84.180859375,11.31090625,84.192859375,11.56290625C84.780859375,11.59890625,85.332859375,11.59890625,85.64485937500001,11.57490625C85.968859375,11.53890625,86.172859375,11.45490625,86.36485937500001,11.22690625C86.616859375,10.90290625,86.676859375,9.88290625,86.736859375,7.18290625C86.736859375,7.062906249999999,86.748859375,6.79890625,86.748859375,6.79890625L83.66485937499999,6.79890625L83.66485937499999,5.21490625L87.840859375,5.21490625C87.984859375,7.158906249999999,88.272859375,8.93490625,88.728859375,10.31490625C87.936859375,11.22690625,87.012859375,11.97090625,85.944859375,12.53490625C86.136859375,12.71490625,86.460859375,13.08690625,86.604859375,13.27890625C87.528859375,12.72690625,88.356859375,12.06690625,89.088859375,11.27490625C89.640859375,12.51090625,90.360859375,13.25490625,91.284859375,13.25490625C92.208859375,13.25490625,92.544859375,12.65490625,92.700859375,10.60290625C92.460859375,10.51890625,92.124859375,10.31490625,91.920859375,10.11090625C91.848859375,11.70690625,91.704859375,12.33090625,91.356859375,12.33090625C90.744859375,12.33090625,90.204859375,11.64690625,89.760859375,10.47090625C90.648859375,9.31890625,91.356859375,7.950906249999999,91.872859375,6.37890625L90.972859375,6.15090625C90.588859375,7.36290625,90.072859375,8.45490625,89.424859375,9.41490625C89.112859375,8.25090625,88.884859375,6.822906250000001,88.752859375,5.21490625L92.604859375,5.21490625L92.604859375,4.33890625L88.704859375,4.33890625C88.668859375,3.67890625,88.656859375,3.00690625,88.656859375,2.31090625L87.720859375,2.31090625ZM89.244859375,2.8989062499999996C90.012859375,3.2949062500000004,90.936859375,3.9069062499999996,91.392859375,4.33890625L91.956859375,3.7149062500000003C91.488859375,3.30690625,90.540859375,2.71890625,89.784859375,2.34690625L89.244859375,2.8989062499999996Z" fill="#A3A3A3" fill-opacity="1"/></g></g></svg>