<svg xmlns="http://www.w3.org/2000/svg" xmlns:xlink="http://www.w3.org/1999/xlink" fill="none" version="1.1" width="8.608469009399414" height="15.986748695373535" viewBox="0 0 8.608469009399414 15.986748695373535"><g><path d="M8.60847,2.45895L8.60847,11.6818C8.60847,13.1701,7.70855,15.9867,4.30497,15.9867C0.898485,15.9867,0,13.1701,0,11.6818L0,3.07333C0,2.99617,0.0100937,2.29311,0.372094,1.56841C0.878297,0.556703,1.83738,0,3.07478,0C4.3107,0,5.26977,0.556703,5.77597,1.56839C6.13653,2.29166,6.14806,2.99473,6.14806,3.07331L6.14806,11.0674C6.14806,11.8087,5.65773,12.912,4.30495,12.912C2.94925,12.912,2.45894,11.8087,2.45894,11.0674L2.45894,5.53372C2.45894,5.19409,2.73439,4.91791,3.07333,4.91791C3.41366,4.91791,3.68766,5.19408,3.68766,5.53372L3.68766,11.0674C3.69636,11.3436,3.80883,11.6818,4.30495,11.6818C4.79961,11.6818,4.91064,11.3436,4.91933,11.0602L4.91933,3.07331C4.91353,2.76902,4.8097,1.22875,3.07477,1.22875C2.2945,1.22875,1.771,1.52152,1.47247,2.11931C1.24027,2.58442,1.23019,3.07044,1.23019,3.07331L1.23019,11.6818C1.23164,11.9947,1.33834,14.7565,4.30495,14.7565C7.34369,14.7565,7.37684,11.8073,7.37684,11.6818L7.37684,2.45894C7.37684,2.1193,7.65375,1.84455,7.99408,1.84455C8.33302,1.84456,8.60847,2.11931,8.60847,2.45895Z" fill="#262626" fill-opacity="1"/></g></svg>