<svg xmlns="http://www.w3.org/2000/svg" xmlns:xlink="http://www.w3.org/1999/xlink" fill="none" version="1.1" width="14.638886451721191" height="16.723920822143555" viewBox="0 0 14.638886451721191 16.723920822143555"><g><path d="M7.15174,8.80965C9.61661,8.80965,11.6223,6.83408,11.6221,4.40483C11.6221,1.97572,9.61663,0,7.15176,0C4.68691,0,2.68141,1.97641,2.68141,4.40483C2.68139,6.83337,4.6869,8.80965,7.15174,8.80965ZM8.99397,9.23381L5.6444,9.23381C2.53174,9.23381,0,11.7266,0,14.7917L0,15.1216C0,16.7239,2.49121,16.7239,5.6444,16.7239L8.99398,16.7239C12.0231,16.7239,14.6389,16.7239,14.6389,15.1216L14.6389,14.7917C14.6388,11.7273,12.1067,9.23381,8.99397,9.23381Z" fill="#FFFFFF" fill-opacity="1"/></g></svg>