<svg xmlns="http://www.w3.org/2000/svg" xmlns:xlink="http://www.w3.org/1999/xlink" fill="none" version="1.1" width="13.363629341125488" height="14" viewBox="0 0 13.363629341125488 14"><g><path d="M1.27273,11.4545L5.0909,11.4545L5.0909,12.7273L0,12.7273L0,1.27273L5.0909,1.27273L5.0909,2.54544L1.27273,2.54544L1.27273,11.4545ZM8.27273,11.4545L9.54544,11.4545L9.54544,12.7273L8.27273,12.7273L8.27273,11.4545ZM10.1818,11.4545L11.4545,11.4545L11.4545,12.7273L10.1818,12.7273L10.1818,11.4545ZM12.0909,12.7273L12.0909,11.4546L13.3636,11.4546L13.3636,12.7273L12.0909,12.7273ZM12.0909,8.27273L12.0909,7L13.3636,7L13.3636,8.27271L12.0909,8.27273ZM12.0909,10.1818L12.0909,8.9091L13.3636,8.9091L13.3636,10.1818L12.0909,10.1818ZM12.0909,6.36364L12.0909,5.09091L13.3636,5.09091L13.3636,6.36363L12.0909,6.36364ZM12.0909,4.45454L12.0909,3.18183L13.3636,3.18183L13.3636,4.45454L12.0909,4.45454ZM12.0909,2.54546L12.0909,1.27271L13.3636,1.27271L13.3636,2.54543L12.0909,2.54546L12.0909,2.54546ZM11.4545,2.54546L10.1818,2.54546L10.1818,1.27271L11.4545,1.27271L11.4545,2.54546L11.4545,2.54546ZM9.54546,2.54546L8.27273,2.54546L8.27273,1.27271L9.54544,1.27271L9.54546,2.54546L9.54546,2.54546ZM6.36363,0L7.63636,0L7.63636,14L6.36364,14L6.36363,0Z" fill="#262626" fill-opacity="1" style="mix-blend-mode:passthrough"/></g></svg>