<svg xmlns="http://www.w3.org/2000/svg" xmlns:xlink="http://www.w3.org/1999/xlink" fill="none" version="1.1" width="14.250000953674316" height="14.25" viewBox="0 0 14.250000953674316 14.25"><g><path d="M5.0625,0L12.9375,0C13.6624,8.58307e-7,14.25,0.587627,14.25,1.3125L14.25,9.1875C14.25,9.91237,13.6624,10.5,12.9375,10.5L5.0625,10.5C4.33763,10.5,3.75,9.91237,3.75,9.1875L3.75,1.3125C3.75,0.587626,4.33763,3.43323e-7,5.0625,0ZM5.0625,1.125C4.95895,1.125,4.875,1.20895,4.875,1.3125L4.875,9.1875C4.875,9.29105,4.95895,9.375,5.0625,9.375L12.9375,9.375C13.0411,9.375,13.125,9.29105,13.125,9.1875L13.125,1.3125C13.125,1.20895,13.0411,1.125,12.9375,1.125L5.0625,1.125ZM9.375,11.625C9.375,11.3143,9.62684,11.0625,9.9375,11.0625C10.2482,11.0625,10.5,11.3143,10.5,11.625L10.5,12.9375C10.5,13.6624,9.91237,14.25,9.1875,14.25L1.3125,14.25C0.587626,14.25,1.71661e-7,13.6624,0,12.9375L0,5.0625C0,4.33763,0.587626,3.75,1.3125,3.75L2.625,3.75C2.93566,3.75,3.1875,4.00184,3.1875,4.3125C3.1875,4.62316,2.93566,4.875,2.625,4.875L1.3125,4.875C1.20895,4.875,1.125,4.95895,1.125,5.0625L1.125,12.9375C1.125,13.0411,1.20895,13.125,1.3125,13.125L9.1875,13.125C9.29105,13.125,9.375,13.0411,9.375,12.9375L9.375,11.625Z" fill="#A3A3A3" fill-opacity="1"/></g></svg>