<svg xmlns="http://www.w3.org/2000/svg" xmlns:xlink="http://www.w3.org/1999/xlink" fill="none" version="1.1" width="14.249979972839355" height="15.00000286102295" viewBox="0 0 14.249979972839355 15.00000286102295"><g transform="matrix(-1,0,0,-1,28.49995994567871,30.0000057220459)"><path d="M23.302849972839354,20.672252861022947C23.594979972839354,19.367252861022948,23.798979972839355,18.423372861022948,23.915229972839356,17.83875286102295C24.207729972839356,16.36688286102295,23.448169972839356,15.00000286102295,21.942729972839356,15.00000286102295C20.585229972839358,15.00000286102295,19.903479972839357,15.67462786102295,19.501479972839356,17.02313286102295L19.491169972839355,17.06250286102295C19.249849972839357,18.153382861022948,18.880859972839357,18.999002861022948,18.392419972839356,19.60406286102295C17.877969972839356,20.24296286102295,17.107789972839356,20.62225286102295,16.287729972839355,20.64056286102295L15.902599972839356,20.64881286102295C14.984229972839355,20.66850286102295,14.249979972839355,21.42450286102295,14.249979972839355,22.35056286102295L14.249979972839355,27.93750286102295C14.249979972839355,29.07660286102295,15.165917972839356,30.00000286102295,16.295979972839355,30.00000286102295L23.547359972839356,30.00000286102295C25.036879972839355,30.00000286102295,26.366379972839354,29.058402861022948,26.871779972839356,27.645902861022947L28.378079972839355,23.43450286102295C28.761379972839357,22.36294286102295,28.210479972839355,21.18094286102295,27.147579972839356,20.79450286102295C26.925079972839356,20.713622861022948,26.690179972839356,20.672252861022947,26.453379972839357,20.672252861022947L23.302849972839354,20.672252861022947ZM21.941979972839356,16.12500286102295C22.631979972839353,16.12500286102295,22.987859972839356,16.76625286102295,22.818919972839353,17.61788286102295C22.685789972839355,18.28838286102295,22.432479972839353,19.453502861022947,22.059169972839356,21.11006286102295C21.979859972839357,21.46200286102295,22.244789972839357,21.797252861022947,22.602539972839356,21.797252861022947L26.446279972839356,21.797252861022947C26.553579972839355,21.797252861022947,26.660079972839355,21.816002861022948,26.761079972839354,21.85294286102295C27.243579972839356,22.02844286102295,27.493679972839356,22.56581286102295,27.319679972839353,23.05294286102295L25.815579972839355,27.26420286102295C25.470379972839353,28.230902861022948,24.561879972839357,28.87500286102295,23.544169972839356,28.87500286102295L16.303669972839355,28.87500286102295C15.790669972839355,28.87500286102295,15.374979972839355,28.455202861022947,15.374979972839355,27.93750286102295L15.374979972839355,22.35056286102295C15.374979972839355,22.03650286102295,15.623599972839356,21.78019286102295,15.934479972839355,21.77363286102295L16.318859972839356,21.76538286102295C17.465709972839356,21.73950286102295,18.542559972839356,21.20835286102295,19.261109972839357,20.314132861022948C19.864859972839355,19.565252861022948,20.300789972839354,18.56850286102295,20.577169972839357,17.32800286102295C20.849419972839357,16.42388286102295,21.156169972839354,16.12500286102295,21.942169972839356,16.12500286102295L21.941979972839356,16.12500286102295Z" fill="#A3A3A3" fill-opacity="1"/></g></svg>