<svg xmlns="http://www.w3.org/2000/svg" xmlns:xlink="http://www.w3.org/1999/xlink" fill="none" version="1.1" width="18" height="18" viewBox="0 0 18 18"><defs><clipPath id="master_svg0_34_3852"><rect x="0" y="0" width="18" height="18" rx="0"/></clipPath></defs><g clip-path="url(#master_svg0_34_3852)"><g><path d="M14.220340625,3.78052375C11.341670625,0.90128475,6.657280625,0.90128475,3.778570625,3.78052375C0.899331625,6.65923375,0.899331625,11.34363375,3.778570625,14.22229375C6.657300625,17.10159375,11.341670625,17.10159375,14.220340625,14.22229375C17.099640625,11.34363375,17.099640625,6.65923375,14.220340625,3.78052375ZM13.471040625,13.47299375C11.005420625,15.93909375,6.992990625,15.93859375,4.527900625,13.47299375C2.061793625,11.00739375,2.061793625,6.99546375,4.527900625,4.52960375C6.992990625,2.06426875,11.005400625,2.06374675,13.471040625,4.52960375C15.936640625,6.99494375,15.936640625,11.00789375,13.471040625,13.47299375Z" fill="#A3A3A3" fill-opacity="1"/></g><g><path d="M9.0380090625,5.2421875C8.5997910625,5.2421875,8.2431640625,5.5988315,8.2431640625,6.0372845C8.2431640625,6.4765475,8.5997910625,6.8337075,9.0380090625,6.8337075C9.4767340625,6.8337075,9.8339140625,6.4765475,9.8339140625,6.0372845C9.8339140625,5.5988315,9.4767340625,5.2421875,9.0380090625,5.2421875Z" fill="#A3A3A3" fill-opacity="1"/></g><g><path d="M9.0387835625,7.513671875C8.7082935625,7.513671875,8.4384765625,7.782984875,8.4384765625,8.113996875L8.4384765625,12.816981875C8.4384765625,13.147961875,8.7082935625,13.417271875,9.0387835625,13.417271875C9.3697955625,13.417271875,9.6396165625,13.147961875,9.6396165625,12.816981875L9.6396165625,8.113996875C9.6396165625,7.783002875,9.3697955625,7.513671875,9.0387835625,7.513671875Z" fill="#A3A3A3" fill-opacity="1"/></g></g></svg>