<svg xmlns="http://www.w3.org/2000/svg" xmlns:xlink="http://www.w3.org/1999/xlink" fill="none" version="1.1" width="14.249979972839355" height="15.000003814697266" viewBox="0 0 14.249979972839355 15.000003814697266"><g><path d="M9.05287,5.67225C9.345,4.36725,9.549,3.42337,9.66525,2.83875C9.95775,1.36688,9.19819,0,7.69275,0C6.33525,0,5.6535,0.674625,5.2515,2.02313L5.24119,2.0625C4.99987,3.15338,4.63088,3.999,4.14244,4.60406C3.62799,5.24296,2.85781,5.62225,2.03775,5.64056L1.65262,5.64881C0.73425,5.6685,0,6.4245,0,7.35056L0,12.9375C0,14.0766,0.915938,15,2.046,15L9.29738,15C10.7869,15,12.1164,14.0584,12.6218,12.6459L14.1281,8.4345C14.5114,7.36294,13.9605,6.18094,12.8976,5.7945C12.6751,5.71362,12.4402,5.67225,12.2034,5.67225L9.05287,5.67225ZM7.692,1.125C8.382,1.125,8.73788,1.76625,8.56894,2.61788C8.43581,3.28838,8.1825,4.4535,7.80919,6.11006C7.72988,6.462,7.99481,6.79725,8.35256,6.79725L12.1963,6.79725C12.3036,6.79725,12.4101,6.816,12.5111,6.85294C12.9936,7.02844,13.2437,7.56581,13.0697,8.05294L11.5656,12.2642C11.2204,13.2309,10.3119,13.875,9.29419,13.875L2.05369,13.875C1.54069,13.875,1.125,13.4552,1.125,12.9375L1.125,7.35056C1.125,7.0365,1.37362,6.78019,1.6845,6.77363L2.06888,6.76538C3.21573,6.7395,4.29258,6.20835,5.01113,5.31413C5.61488,4.56525,6.05081,3.5685,6.32719,2.328C6.59944,1.42388,6.90619,1.125,7.69219,1.125L7.692,1.125Z" fill="#A3A3A3" fill-opacity="1"/></g></svg>