<svg xmlns="http://www.w3.org/2000/svg" xmlns:xlink="http://www.w3.org/1999/xlink" fill="none" version="1.1" width="14" height="14" viewBox="0 0 14 14"><defs><clipPath id="master_svg0_34_4711"><rect x="0" y="0" width="14" height="14" rx="0"/></clipPath></defs><g clip-path="url(#master_svg0_34_4711)"><g><path d="M1.591089375,11.4545L5.409259375,11.4545L5.409259375,12.7273L0.318359375,12.7273L0.318359375,1.27273L5.409259375,1.27273L5.409259375,2.54544L1.591089375,2.54544L1.591089375,11.4545ZM8.591089375,11.4545L9.863799375,11.4545L9.863799375,12.7273L8.591089375,12.7273L8.591089375,11.4545ZM10.500159375,11.4545L11.772859375,11.4545L11.772859375,12.7273L10.500159375,12.7273L10.500159375,11.4545ZM12.409259375,12.7273L12.409259375,11.4546L13.681959375,11.4546L13.681959375,12.7273L12.409259375,12.7273ZM12.409259375,8.27273L12.409259375,7L13.681959375,7L13.681959375,8.27271L12.409259375,8.27273ZM12.409259375,10.1818L12.409259375,8.9091L13.681959375,8.9091L13.681959375,10.1818L12.409259375,10.1818ZM12.409259375,6.36364L12.409259375,5.09091L13.681959375,5.09091L13.681959375,6.36363L12.409259375,6.36364ZM12.409259375,4.45454L12.409259375,3.18183L13.681959375,3.18183L13.681959375,4.45454L12.409259375,4.45454ZM12.409259375,2.54546L12.409259375,1.27271L13.681959375,1.27271L13.681959375,2.54543L12.409259375,2.54546L12.409259375,2.54546ZM11.772859375,2.54546L10.500159375,2.54546L10.500159375,1.27271L11.772859375,1.27271L11.772859375,2.54546L11.772859375,2.54546ZM9.863819375,2.54546L8.591089375,2.54546L8.591089375,1.27271L9.863799375,1.27271L9.863819375,2.54546L9.863819375,2.54546ZM6.681989375,0L7.954719375,0L7.954719375,14L6.681999375,14L6.681989375,0Z" fill="#004EA2" fill-opacity="1" style="mix-blend-mode:passthrough"/></g></g></svg>