<svg xmlns="http://www.w3.org/2000/svg" xmlns:xlink="http://www.w3.org/1999/xlink" fill="none" version="1.1" width="14.515626907348633" height="14" viewBox="0 0 14.515626907348633 14"><g><path d="M7,0C8.933,0,10.683,0.7835,11.9497,2.05025L11.9563,2.05684L11.0724,2.9407L11.0659,2.93414C9.99367,1.86195,8.54688,1.25,7,1.25C3.82438,1.25,1.25,3.82438,1.25,7C1.25,7.92781,1.46902,8.8215,1.88333,9.62661C1.96961,9.79428,2.00767,9.94,2.03386,10.11C2.04805,10.2021,2.05742,10.3012,2.06381,10.413C2.07434,10.5973,2.07717,10.8297,2.07322,11.1167C2.06925,11.4038,2.05833,11.7512,2.04048,12.1596L2.03994,12.1718L2.0492,12.171C2.44853,12.1362,2.79014,12.1109,3.07486,12.0949L3.09122,12.094C3.32083,12.0814,3.51645,12.0747,3.68161,12.0744L3.70677,12.0744C3.74002,12.0745,3.77197,12.0748,3.8027,12.0754C3.91661,12.0777,4.01827,12.0836,4.11323,12.0949C4.28139,12.1149,4.42875,12.1481,4.59559,12.225C5.34238,12.5694,6.1572,12.75,7,12.75C8.54627,12.75,9.99256,12.1385,11.0646,11.0671L11.9485,11.951L11.9116,11.9876C10.648,13.2321,8.91366,14,7,14C5.95472,14,4.96297,13.7709,4.07219,13.3602C3.89584,13.2788,2.85591,13.3361,0.952375,13.532C0.941527,13.5331,0.930606,13.5334,0.919719,13.5327C0.807734,13.5262,0.72225,13.4301,0.728781,13.3181L0.732109,13.2608C0.840766,11.379,0.854016,10.3582,0.771859,10.1986C0.2785,9.23984,0,8.15244,0,7C0,3.134,3.134,0,7,0ZM11.6638,4.05152C11.7624,4.08665,11.8401,4.16431,11.8752,4.26302L12.452,5.88344C12.4871,5.98213,12.5647,6.05979,12.6634,6.09492L14.2839,6.67164C14.4652,6.73617,14.5599,6.93552,14.4954,7.11686C14.4602,7.21556,14.3826,7.29323,14.2839,7.32836L12.6634,7.90508C12.5647,7.94021,12.4871,8.01787,12.452,8.11656L11.8752,9.73699C11.8107,9.91833,11.6114,10.013,11.43,9.94849C11.3313,9.91336,11.2536,9.83569,11.2185,9.73699L10.6418,8.11656C10.6067,8.01787,10.529,7.94021,10.4303,7.90508L8.80989,7.32836C8.62855,7.26383,8.53386,7.06449,8.59839,6.88314C8.63352,6.78444,8.71119,6.70677,8.80989,6.67164L10.4303,6.09492C10.529,6.05979,10.6067,5.98213,10.6418,5.88344L11.2185,4.26302C11.283,4.08167,11.4824,3.98699,11.6638,4.05152Z" fill="#004EA2" fill-opacity="1" style="mix-blend-mode:passthrough"/></g></svg>