<svg xmlns="http://www.w3.org/2000/svg" xmlns:xlink="http://www.w3.org/1999/xlink" fill="none" version="1.1" width="14.002872467041016" height="12.834373474121094" viewBox="0 0 14.002872467041016 12.834373474121094"><g><path d="M13.1514,8.45319C12.6462,9.26972,11.9424,9.94506,11.1058,10.4163C11.0039,10.6041,10.9404,10.8104,10.9188,11.023C10.857,11.3879,10.8664,11.7613,10.9462,12.1227L11.0241,12.4435L10.7155,12.4027C10.135,12.3239,8.62613,12.1227,8.05851,11.0026C6.63506,10.9471,5.28352,10.3625,4.26828,9.36326C3.22728,8.34992,2.64006,6.95921,2.64006,5.50712C2.63869,4.76703,2.79189,4.03481,3.08985,3.35736C3.37895,2.699,3.79392,2.10348,4.31145,1.6043C4.83352,1.1019,5.44609,0.703024,6.11672,0.428786C7.53106,-0.142924,9.11216,-0.142924,10.5265,0.428786C11.197,0.703032,11.8095,1.10191,12.3315,1.6043C12.8491,2.10339,13.2641,2.69893,13.5531,3.35736C13.851,4.03481,14.0042,4.76703,14.0029,5.50712C13.9992,6.54931,13.7043,7.56973,13.1514,8.45319ZM11.4465,2.44437C11.0354,2.04752,10.5524,1.73271,10.0233,1.51679C8.9021,1.06564,7.64982,1.06564,6.52859,1.51679C5.99952,1.73265,5.5165,2.04747,5.10543,2.44437C3.37976,4.08136,3.36411,6.8258,5.07101,8.48236C5.89975,9.29593,7.00905,9.76053,8.17022,9.78038L8.2869,9.78038L8.3324,9.89414L8.33736,9.90872C8.64655,10.6234,9.56684,10.845,10.1132,10.9326C10.0797,10.6362,10.0896,10.3365,10.1423,10.0429C10.1841,9.81538,10.2821,9.41868,10.476,9.31951C11.1345,8.94975,11.6882,8.4188,12.0853,7.77647C12.5163,7.08807,12.7466,6.29304,12.7503,5.48086C12.75,4.33284,12.2786,3.23523,11.4465,2.44437ZM10.9649,4.99666L5.64739,4.99666C5.40309,4.98162,5.21265,4.7791,5.21265,4.53433C5.21265,4.28956,5.40309,4.08704,5.64739,4.072L10.9649,4.072C11.2092,4.08704,11.3997,4.28956,11.3997,4.53433C11.3997,4.7791,11.2092,4.98162,10.9649,4.99666ZM6.02542,6.34135L9.37811,6.34135C9.62242,6.35639,9.81286,6.55891,9.81286,6.80368C9.81286,7.04845,9.62242,7.25097,9.37811,7.26601L6.02542,7.26601C5.78112,7.25097,5.59068,7.04845,5.59068,6.80368C5.59068,6.55891,5.78112,6.35639,6.02542,6.34135ZM0.957593,7.66271C0.955878,8.32095,1.14317,8.96585,1.49722,9.52077C1.835,10.04,2.40438,10.1654,2.78066,10.3229C2.92635,10.369,3.01422,10.5172,2.98484,10.6671C2.97872,10.7925,2.95976,10.9646,2.92825,11.1717C2.91134,11.2826,2.89267,11.3963,2.87487,11.4955C3.04318,11.4605,3.25845,11.4109,3.48013,11.3438C4.24407,11.1076,4.41179,10.9617,4.47917,10.8217C4.47917,10.8159,4.63143,10.6292,4.63289,10.6234L4.60606,10.5971L4.64514,10.6175C4.71515,10.5746,4.78909,10.5385,4.86595,10.5096C5.10722,10.7369,5.39951,10.9029,5.71827,10.9938C5.71827,10.9938,6.15581,11.1222,5.71827,11.3468C5.37132,11.5021,5.0054,11.6109,4.62998,11.6705C4.41792,11.9943,3.7412,12.321,3.09131,12.5194C2.75909,12.6224,2.42312,12.7128,2.0841,12.7906L1.74837,12.8344L1.82071,12.4843C1.92505,12.0522,2.00751,11.6151,2.06777,11.1747C1.47775,10.8883,0.966951,10.4617,0.580146,9.93206C0.184692,9.30963,-0.016749,8.58367,0.0014322,7.84647C-0.0155969,7.23942,0.119576,6.63776,0.394631,6.09633C0.45997,5.97382,1.09323,4.74872,2.15119,4.2966C2.27428,4.2441,2.1054,5.46919,1.99893,5.55379C1.38059,6.08677,1.00485,6.84774,0.957593,7.66271Z" fill="#000000" fill-opacity="1" style="mix-blend-mode:passthrough"/></g></svg>