<svg xmlns="http://www.w3.org/2000/svg" xmlns:xlink="http://www.w3.org/1999/xlink" fill="none" version="1.1" width="14.76756763458252" height="14.766007423400879" viewBox="0 0 14.76756763458252 14.766007423400879"><g><path d="M1.33728,7.2465C1.37118,5.69081,2.00479,4.20836,3.10578,3.10875C4.23795,1.9715,5.77757,1.33373,7.38229,1.33725C8.98625,1.33311,10.5252,1.97104,11.6558,3.10875C11.829,3.28275,11.9933,3.46725,12.1433,3.66075L11.0858,4.4865C11.0431,4.51962,11.0231,4.57422,11.0343,4.62707C11.0455,4.67993,11.0858,4.72175,11.1383,4.73475L14.2268,5.49075C14.3146,5.51192,14.3994,5.44612,14.4008,5.35575L14.415,2.17575C14.4158,2.12181,14.3854,2.07226,14.3369,2.04852C14.2885,2.02478,14.2307,2.0311,14.1885,2.06475L13.1963,2.83875C11.7995,1.04524,9.65255,-0.00249064,7.37928,0.00000377655C3.35178,0.00000377655,0.0757834,3.22725,0.0000333023,7.23901C-0.0016658,7.31803,0.0619572,7.383,0.141033,7.383L1.19628,7.383C1.27288,7.38343,1.33565,7.32233,1.33728,7.24575L1.33728,7.2465ZM14.625,7.38375L13.5713,7.38375C13.4947,7.38333,13.4319,7.44443,13.4303,7.521C13.4147,8.28254,13.2543,9.03415,12.9578,9.73575C12.6548,10.4547,12.2149,11.1078,11.6625,11.6588C10.5301,12.7961,8.99029,13.4341,7.38528,13.431C5.52341,13.4351,3.76455,12.5769,2.62203,11.1068L3.67953,10.281C3.72222,10.2479,3.74222,10.1933,3.73104,10.1404C3.71986,10.0876,3.67947,10.0458,3.62703,10.0328L0.538534,9.27676C0.450673,9.25559,0.365868,9.32139,0.364534,9.41175L0.352534,12.594C0.352534,12.7118,0.487534,12.7785,0.579034,12.705L1.57128,11.9288C2.96875,13.7213,5.11541,14.7683,7.38828,14.766C11.4173,14.766,14.6918,11.5365,14.7675,7.527C14.7692,7.44798,14.7056,7.383,14.6265,7.383L14.625,7.38375Z" fill="#A3A3A3" fill-opacity="1"/></g></svg>