<svg xmlns="http://www.w3.org/2000/svg" xmlns:xlink="http://www.w3.org/1999/xlink" fill="none" version="1.1" width="14" height="14" viewBox="0 0 14 14"><g><path d="M10.5,14L10.5,12.8333L12.8333,12.8333L12.8333,10.5L14,10.5L14,14L10.5,14ZM12.8333,1.16667L10.5,1.16667L10.5,0L14,0L14,3.5L12.8333,3.5L12.8333,1.16667ZM9.67167,8.855L11.2175,10.3979L10.3892,11.2227L8.84917,9.67983C6.43573,11.4991,2.94928,10.2095,2.30076,7.25753C1.65224,4.30559,4.27706,1.67333,7.23083,2.31348C10.1846,2.95364,11.4841,6.43642,9.67167,8.855ZM6.41667,3.49533C4.80341,3.49598,3.49607,4.80419,3.4965,6.41744C3.49672,8.03049,4.80458,9.338,6.41783,9.338C8.0313,9.33778,9.33917,8.02992,9.33917,6.41667C9.33949,4.80267,8.03066,3.49437,6.41667,3.49533ZM1.16667,3.5L0,3.5L0,0L3.5,0L3.5,1.16667L1.16667,1.16667L1.16667,3.5ZM1.16667,12.8333L3.5,12.8333L3.5,14L0,14L0,10.5L1.16667,10.5L1.16667,12.8333Z" fill="#262626" fill-opacity="1" style="mix-blend-mode:passthrough"/></g></svg>