<svg xmlns="http://www.w3.org/2000/svg" xmlns:xlink="http://www.w3.org/1999/xlink" fill="none" version="1.1" width="13.528413772583008" height="13.889657020568848" viewBox="0 0 13.528413772583008 13.889657020568848"><g><path d="M7.69944,2.86461L12.1383,7.30379C12.4539,7.619,12.9711,7.62112,13.2892,7.30309C13.609,6.98289,13.6072,6.46988,13.2895,6.15255L7.3743,0.236943C7.20739,0.0704559,6.98437,-0.00852061,6.76415,0.00072712C6.54394,-0.00852061,6.32087,0.0704558,6.15419,0.236943L0.238971,6.15257C-0.078726,6.4699,-0.0806987,6.9829,0.239306,7.3031C0.557213,7.62111,1.07465,7.61901,1.39003,7.3038L5.90497,2.78848L5.90497,12.996C5.90497,13.4898,6.30663,13.8897,6.80221,13.8897C7.30137,13.8897,7.69944,13.4898,7.69944,12.996L7.69944,2.86461Z" fill="#262626" fill-opacity="1" style="mix-blend-mode:passthrough"/></g></svg>