<svg xmlns="http://www.w3.org/2000/svg" xmlns:xlink="http://www.w3.org/1999/xlink" fill="none" version="1.1" width="6.00057315826416" height="6.000572204589844" viewBox="0 0 6.00057315826416 6.000572204589844"><g><path d="M2.65332,0.241559C2.70705,0.096379,2.84549,0,3.00029,0C3.15509,-1.19284e-7,3.29352,0.0963791,3.34725,0.241559L3.93919,1.8434C3.97668,1.94431,4.05626,2.02389,4.15717,2.06138L5.75901,2.65332C5.90419,2.70705,6.00057,2.84548,6.00057,3.00029C6.00057,3.15509,5.90419,3.29352,5.75901,3.34725L4.15717,3.93919C4.05626,3.97668,3.97668,4.05626,3.93919,4.15717L3.34725,5.75901C3.29353,5.90419,3.15509,6.00057,3.00029,6.00057C2.84549,6.00057,2.70705,5.90419,2.65332,5.75901L2.06138,4.15717C2.02389,4.05626,1.94431,3.97668,1.8434,3.93919L0.241558,3.34725C0.0963788,3.29352,0,3.15509,0,3.00029C0,2.84548,0.0963788,2.70705,0.241558,2.65332L1.8434,2.06138C1.94431,2.02389,2.02389,1.94431,2.06138,1.8434L2.65332,0.240559L2.65332,0.241559Z" fill="#262626" fill-opacity="1" style="mix-blend-mode:passthrough"/></g></svg>