<svg xmlns="http://www.w3.org/2000/svg" xmlns:xlink="http://www.w3.org/1999/xlink" fill="none" version="1.1" width="36" height="36" viewBox="0 0 36 36"><defs><clipPath id="master_svg0_38_2254"><rect x="0" y="0" width="36" height="36" rx="10"/></clipPath></defs><g clip-path="url(#master_svg0_38_2254)"><g><path d="M6.2929685,2.25L22.7636625,2.25L30.6035625,10.17773L30.6035625,32.8711C30.6035625,33.3565,30.2100625,33.75,29.7245625,33.75L6.2929685,33.75C5.8075665,33.75,5.4140625,33.3565,5.4140625,32.8711L5.4140625,3.1289059999999997C5.4140625,2.643504,5.8075665,2.25,6.2929685,2.25Z" fill="#4A8DFF" fill-opacity="1"/></g><g><path d="M22.763671875,2.25L22.763671875,9.298829999999999C22.763671875,9.78423,23.157174875,10.17773,23.642577875,10.17773L30.603511875,10.17773L22.763671875,2.25Z" fill="#E5F0FF" fill-opacity="1"/></g><g><path d="M24.368675,27.5718625C25.126075,28.4014625,26.507775,27.8655625,26.507775,26.7421625L26.507775,13.6640625L24.046875,13.6640625L24.046875,23.569612499999998L19.154775,18.2115225C18.666845000000002,17.6771125,17.825345,17.6771125,17.337415,18.2115225L12.445315,23.569612499999998L12.445315,13.6640625L9.984375,13.6640625L9.984375,26.7421625C9.984375,27.8655625,11.366085,28.4014625,12.123525,27.5718625L18.246095,20.866062499999998L24.368675,27.5718625Z" fill="#FFFFFF" fill-opacity="1"/></g></g></svg>